<svg viewBox="0 0 1024 1024" xmlns="http://www.w3.org/2000/svg">
  <path d="M511.936 61.568a448 448 0 0 0-447.552 447.552 448 448 0 0 0 447.552 447.552 448 448 0 0 0 447.552-447.552A448 448 0 0 0 511.936 61.568z m0 831.104a384 384 0 0 1-383.552-383.552 384 384 0 0 1 383.552-383.552 384 384 0 0 1 383.552 383.552 383.936 383.936 0 0 1-383.552 383.552z" p-id="2135"></path>
  <path d="M386.112 278.784a31.872 31.872 0 0 1 44.992-0.32l207.104 207.168c6.464 6.4 9.28 14.912 8.96 23.424a30.912 30.912 0 0 1-8.96 23.616L431.04 739.84c-12.224 12.352-32.384 12.224-44.864-0.256s-12.608-32.64-0.384-44.992l185.408-185.408-185.344-185.472a31.744 31.744 0 0 1 0.256-44.928z" p-id="2136"></path>
</svg>
