<svg viewBox="0 0 1024 1024" xmlns="http://www.w3.org/2000/svg">
  <path d="M511.936 61.568a448 448 0 0 0-447.552 447.552 448 448 0 0 0 447.552 447.552 448 448 0 0 0 447.552-447.552A448 448 0 0 0 511.936 61.568z m0 831.104a384 384 0 0 1-383.552-383.552 384 384 0 0 1 383.552-383.552 384 384 0 0 1 383.552 383.552 383.936 383.936 0 0 1-383.552 383.552z" p-id="2277"></path>
  <path d="M637.76 278.784a31.872 31.872 0 0 0-44.992-0.32L385.6 485.632a30.912 30.912 0 0 0-8.96 23.424 31.36 31.36 0 0 0 8.96 23.616l207.168 207.168c12.224 12.352 32.384 12.224 44.864-0.256s12.608-32.64 0.384-44.992L452.608 509.184l185.344-185.408a31.744 31.744 0 0 0-0.192-44.992z" p-id="2278"></path>
</svg>
