<svg id="_7" data-name="7" xmlns="http://www.w3.org/2000/svg" width="32" height="36" viewBox="0 0 32 36">
  <metadata><?xpacket begin="﻿" id="W5M0MpCehiHzreSzNTczkc9d"?>
<x:xmpmeta xmlns:x="adobe:ns:meta/" x:xmptk="Adobe XMP Core 5.6-c142 79.160924, 2017/07/13-01:06:39        ">
   <rdf:RDF xmlns:rdf="http://www.w3.org/1999/02/22-rdf-syntax-ns#">
      <rdf:Description rdf:about=""/>
   </rdf:RDF>
</x:xmpmeta>
                                                                                                    
                                                                                                    
                                                                                                    
                                                                                                    
                                                                                                    
                                                                                                    
                                                                                                    
                                                                                                    
                                                                                                    
                                                                                                    
                                                                                                    
                                                                                                    
                                                                                                    
                                                                                                    
                                                                                                    
                                                                                                    
                                                                                                    
                                                                                                    
                                                                                                    
                                                                                                    
                           
<?xpacket end="w"?></metadata>
<defs>
    <style>
      .cls-1 {
        fill: #00bbe3;
      }

      .cls-1, .cls-2 {
        fill-rule: evenodd;
      }

      .cls-2 {
        fill: #75e7ff;
      }
    </style>
  </defs>
  <path id="形状_3" data-name="形状 3" class="cls-1" d="M2613.09,4121h-26.18a2.9,2.9,0,0,1-2.91-2.87v-30.26a2.9,2.9,0,0,1,2.91-2.87h18.29l10.8,10.42v22.71A2.9,2.9,0,0,1,2613.09,4121Zm-4.09-21.82a1.184,1.184,0,0,0-1.19-1.18h-16.62a1.184,1.184,0,0,0-1.19,1.18v13.64a1.184,1.184,0,0,0,1.19,1.18h16.62a1.184,1.184,0,0,0,1.19-1.18v-13.64Zm-5.56,7.06a0.7,0.7,0,0,0-.54-0.26,0.858,0.858,0,0,0-.55.24l-0.79.66a0.833,0.833,0,0,1-.49.19,0.707,0.707,0,0,1-.46-0.17c-0.06-.06-0.13-0.11-0.19-0.17l-2.28-2.43a0.932,0.932,0,0,0-.7-0.31,0.98,0.98,0,0,0-.72.33l-5.36,6.35v-10.85a0.552,0.552,0,0,1,.55-0.49h15.17a0.547,0.547,0,0,1,.55.5l0.01,10.85-4.2-4.44h0Zm2.88-3.54a2.012,2.012,0,0,0-2-2.03,0.085,0.085,0,0,0-.07,0A2,2,0,1,0,2606.32,4102.7Z" transform="translate(-2584 -4085)"/>
  <path id="形状_3_拷贝_3" data-name="形状 3 拷贝 3" class="cls-2" d="M2616,4095.2h-8.96a1.913,1.913,0,0,1-1.92-1.8V4085Z" transform="translate(-2584 -4085)"/>
</svg>
