<svg id="_1" data-name="1" xmlns="http://www.w3.org/2000/svg" width="32" height="36" viewBox="0 0 32 36">
  <metadata><?xpacket begin="﻿" id="W5M0MpCehiHzreSzNTczkc9d"?>
<x:xmpmeta xmlns:x="adobe:ns:meta/" x:xmptk="Adobe XMP Core 5.6-c142 79.160924, 2017/07/13-01:06:39        ">
   <rdf:RDF xmlns:rdf="http://www.w3.org/1999/02/22-rdf-syntax-ns#">
      <rdf:Description rdf:about=""/>
   </rdf:RDF>
</x:xmpmeta>
                                                                                                    
                                                                                                    
                                                                                                    
                                                                                                    
                                                                                                    
                                                                                                    
                                                                                                    
                                                                                                    
                                                                                                    
                                                                                                    
                                                                                                    
                                                                                                    
                                                                                                    
                                                                                                    
                                                                                                    
                                                                                                    
                                                                                                    
                                                                                                    
                                                                                                    
                                                                                                    
                           
<?xpacket end="w"?></metadata>
<defs>
    <style>
      .cls-1 {
        fill: #387efa;
      }

      .cls-1, .cls-2 {
        fill-rule: evenodd;
      }

      .cls-2 {
        fill: #97cef9;
      }
    </style>
  </defs>
  <path id="形状_1" data-name="形状 1" class="cls-1" d="M230.571,4275h16.006L258,4286.25v20.25a4.533,4.533,0,0,1-4.572,4.5H230.571a4.533,4.533,0,0,1-4.571-4.5v-27a4.533,4.533,0,0,1,4.571-4.5m3.184,23.55v-4.91h1.087a1.448,1.448,0,0,1,1.168.52,2,2,0,0,1,.443,1.34v1.18a2.023,2.023,0,0,1-.443,1.35,1.448,1.448,0,0,1-1.168.52h-1.087m1.087-6.01h-2.556v7.11h2.556a3.094,3.094,0,0,0,2.215-.83,2.807,2.807,0,0,0,.87-2.14v-1.17a2.841,2.841,0,0,0-.87-2.14,3.094,3.094,0,0,0-2.215-.83m7.127,6.1a1.414,1.414,0,0,1-1.168-.53,2.173,2.173,0,0,1-.417-1.38v-1.29a2.158,2.158,0,0,1,.415-1.36,1.4,1.4,0,0,1,1.16-.53,1.446,1.446,0,0,1,1.183.53,2.117,2.117,0,0,1,.428,1.36v1.29a2.152,2.152,0,0,1-.423,1.38,1.433,1.433,0,0,1-1.178.53m-0.01-6.2a2.947,2.947,0,0,0-2.2.85,2.982,2.982,0,0,0-.843,2.16v1.28a2.967,2.967,0,0,0,.846,2.17,3.3,3.3,0,0,0,4.419,0,2.943,2.943,0,0,0,.85-2.17v-1.28a2.96,2.96,0,0,0-.855-2.16,3,3,0,0,0-2.22-.85m6.926,0a2.737,2.737,0,0,0-2.074.82,2.972,2.972,0,0,0-.79,2.13v1.41a2.912,2.912,0,0,0,.81,2.13,2.849,2.849,0,0,0,2.129.82,3.016,3.016,0,0,0,2.028-.64,2.2,2.2,0,0,0,.715-1.79l-0.01-.03h-1.424a1.417,1.417,0,0,1-.324,1.03,1.33,1.33,0,0,1-.985.34,1.3,1.3,0,0,1-1.084-.52,2.168,2.168,0,0,1-.391-1.34v-1.42a2.224,2.224,0,0,1,.371-1.33,1.208,1.208,0,0,1,1.029-.52,1.461,1.461,0,0,1,1.05.34,1.367,1.367,0,0,1,.339,1.02H251.7l0.01-.03a2.149,2.149,0,0,0-.735-1.79,3.168,3.168,0,0,0-2.093-.63" transform="translate(-226 -4275)"/>
  <path id="形状_1_拷贝" data-name="形状 1 拷贝" class="cls-2" d="M246.571,4275L258,4286.25h-6.857a4.533,4.533,0,0,1-4.572-4.5V4275Z" transform="translate(-226 -4275)"/>
</svg>
