<svg id="_8" data-name="8" xmlns="http://www.w3.org/2000/svg" width="32" height="36" viewBox="0 0 32 36">
  <metadata><?xpacket begin="﻿" id="W5M0MpCehiHzreSzNTczkc9d"?>
<x:xmpmeta xmlns:x="adobe:ns:meta/" x:xmptk="Adobe XMP Core 5.6-c142 79.160924, 2017/07/13-01:06:39        ">
   <rdf:RDF xmlns:rdf="http://www.w3.org/1999/02/22-rdf-syntax-ns#">
      <rdf:Description rdf:about=""/>
   </rdf:RDF>
</x:xmpmeta>
                                                                                                    
                                                                                                    
                                                                                                    
                                                                                                    
                                                                                                    
                                                                                                    
                                                                                                    
                                                                                                    
                                                                                                    
                                                                                                    
                                                                                                    
                                                                                                    
                                                                                                    
                                                                                                    
                                                                                                    
                                                                                                    
                                                                                                    
                                                                                                    
                                                                                                    
                                                                                                    
                           
<?xpacket end="w"?></metadata>
<defs>
    <style>
      .cls-1 {
        fill: #8a37ca;
      }

      .cls-1, .cls-2 {
        fill-rule: evenodd;
      }

      .cls-2 {
        fill: #c36ff3;
      }
    </style>
  </defs>
  <path id="形状_3" data-name="形状 3" class="cls-1" d="M2670.09,4121h-26.18a2.9,2.9,0,0,1-2.91-2.87v-30.26a2.9,2.9,0,0,1,2.91-2.87h18.29l10.8,10.42v22.71A2.9,2.9,0,0,1,2670.09,4121ZM2654,4104.73h-3.5v-2.46h3.5v-2.45h-3.5v-2.46h3.5v-2.45h-3.5v-2.46h3.5V4090h-3.5v2.45H2647v2.46h3.5v2.45H2647v2.46h3.5v2.45H2647v2.46h3.5v2.45H2647v8.59a1.2,1.2,0,0,0,1.17,1.23h4.66a1.2,1.2,0,0,0,1.17-1.23v-11.04Zm-5.83,7.36h4.66v2.46h-4.66v-2.46Z" transform="translate(-2641 -4085)"/>
  <path id="形状_3_拷贝_3" data-name="形状 3 拷贝 3" class="cls-2" d="M2673,4095.2h-8.96a1.913,1.913,0,0,1-1.92-1.8V4085Z" transform="translate(-2641 -4085)"/>
</svg>
