<svg xmlns="http://www.w3.org/2000/svg" width="20" height="18" viewBox="0 0 20 18">
  <metadata><?xpacket begin="﻿" id="W5M0MpCehiHzreSzNTczkc9d"?>
<x:xmpmeta xmlns:x="adobe:ns:meta/" x:xmptk="Adobe XMP Core 5.6-c142 79.160924, 2017/07/13-01:06:39        ">
   <rdf:RDF xmlns:rdf="http://www.w3.org/1999/02/22-rdf-syntax-ns#">
      <rdf:Description rdf:about=""/>
   </rdf:RDF>
</x:xmpmeta>
                                                                                                    
                                                                                                    
                                                                                                    
                                                                                                    
                                                                                                    
                                                                                                    
                                                                                                    
                                                                                                    
                                                                                                    
                                                                                                    
                                                                                                    
                                                                                                    
                                                                                                    
                                                                                                    
                                                                                                    
                                                                                                    
                                                                                                    
                                                                                                    
                                                                                                    
                                                                                                    
                           
<?xpacket end="w"?></metadata>
<defs>
    <style>
      .cls-1 {
        fill-rule: evenodd;
      }
    </style>
  </defs>
  <path id="圆角矩形_681" data-name="圆角矩形 681" class="cls-1" d="M2499,3781h-18a1,1,0,0,1-1-1v-6a1,1,0,0,1,2,0v5h16v-5a1,1,0,0,1,2,0v6A1,1,0,0,1,2499,3781Zm-8.06-4.7a0.981,0.981,0,0,1-1.88,0l-2.6-2.59a1,1,0,0,1,1.42-1.42l1.12,1.12V3764a1,1,0,0,1,2,0v9.41l1.12-1.12a1,1,0,0,1,1.42,1.42Z" transform="translate(-2480 -3763)"/>
</svg>
