<svg id="_3" data-name="3" xmlns="http://www.w3.org/2000/svg" width="32" height="36" viewBox="0 0 32 36">
  <metadata><?xpacket begin="﻿" id="W5M0MpCehiHzreSzNTczkc9d"?>
<x:xmpmeta xmlns:x="adobe:ns:meta/" x:xmptk="Adobe XMP Core 5.6-c142 79.160924, 2017/07/13-01:06:39        ">
   <rdf:RDF xmlns:rdf="http://www.w3.org/1999/02/22-rdf-syntax-ns#">
      <rdf:Description rdf:about=""/>
   </rdf:RDF>
</x:xmpmeta>
                                                                                                    
                                                                                                    
                                                                                                    
                                                                                                    
                                                                                                    
                                                                                                    
                                                                                                    
                                                                                                    
                                                                                                    
                                                                                                    
                                                                                                    
                                                                                                    
                                                                                                    
                                                                                                    
                                                                                                    
                                                                                                    
                                                                                                    
                                                                                                    
                                                                                                    
                                                                                                    
                           
<?xpacket end="w"?></metadata>
<defs>
    <style>
      .cls-1 {
        fill: #f25b09;
      }

      .cls-1, .cls-2 {
        fill-rule: evenodd;
      }

      .cls-2 {
        fill: #f59b88;
      }
    </style>
  </defs>
  <path id="形状_3_拷贝" data-name="形状 3 拷贝" class="cls-1" d="M908.914,4275a2.9,2.9,0,0,0-2.914,2.87v30.26a2.9,2.9,0,0,0,2.914,2.87h26.172a2.9,2.9,0,0,0,2.914-2.87v-21.71L927.2,4275H908.914Zm6.462,21.76h-2.34v2.78a0.462,0.462,0,0,1-.482.46,0.527,0.527,0,0,1-.551-0.46v-6.81a0.75,0.75,0,0,1,.758-0.73h2.615a2.323,2.323,0,0,1,2.547,2.38A2.359,2.359,0,0,1,915.376,4296.76Zm-0.137-3.9h-2.2v3.04h2.2a1.547,1.547,0,0,0,1.652-1.52A1.507,1.507,0,0,0,915.239,4292.86Zm7.709,3.9h-2.34v2.78a0.483,0.483,0,0,1-.964,0v-6.81a0.691,0.691,0,0,1,.689-0.73h2.615A2.385,2.385,0,1,1,922.948,4296.76Zm-0.138-3.9h-2.133v3.04h2.133a1.547,1.547,0,0,0,1.653-1.52A1.507,1.507,0,0,0,922.81,4292.86Zm9.706,0h-2.271v6.68a0.462,0.462,0,0,1-.482.46,0.526,0.526,0,0,1-.551-0.46v-6.68h-2.2a0.462,0.462,0,0,1-.482-0.46,0.456,0.456,0,0,1,.482-0.4h5.507a0.462,0.462,0,0,1,.482.46A0.456,0.456,0,0,1,932.516,4292.86Z" transform="translate(-906 -4275)"/>
  <path id="形状_3_拷贝_2" data-name="形状 3 拷贝 2" class="cls-2" d="M927.2,4275v8.21a3.29,3.29,0,0,0,3.485,3.26H938Z" transform="translate(-906 -4275)"/>
</svg>
