<?xml version="1.0" standalone="no"?><!DOCTYPE svg PUBLIC "-//W3C//DTD SVG 1.1//EN" "http://www.w3.org/Graphics/SVG/1.1/DTD/svg11.dtd"><svg t="1637301784776" class="icon" viewBox="0 0 1024 1024" version="1.1" xmlns="http://www.w3.org/2000/svg" p-id="93748" xmlns:xlink="http://www.w3.org/1999/xlink" width="200" height="200"><defs><style type="text/css"></style></defs><path d="M640 320H288c-17.6 0-32-14.4-32-32s14.4-32 32-32h352c17.6 0 32 14.4 32 32s-14.4 32-32 32zM512 512H288c-17.6 0-32-14.4-32-32s14.4-32 32-32h224c17.6 0 32 14.4 32 32s-14.4 32-32 32zM640 640c70.918 0 133.559 33.641 173.619 61.863 34.529 24.324 59.204 49.463 73.058 66.135-13.854 16.673-38.529 41.812-73.058 66.137C773.558 862.358 710.918 896 640 896s-133.558-33.642-173.619-61.864c-34.529-24.325-59.204-49.464-73.058-66.137 13.854-16.673 38.529-41.811 73.058-66.135C506.441 673.641 569.082 640 640 640m0-64c-176.73 0-320 163.076-320 191.998C320 796.92 463.27 960 640 960s320-163.08 320-192.002C960 739.076 816.73 576 640 576z" p-id="93749"></path><path d="M640 736c17.645 0 32 14.355 32 32s-14.355 32-32 32-32-14.355-32-32 14.355-32 32-32m0-64c-53.019 0-96 42.981-96 96s42.981 96 96 96 96-42.981 96-96-42.981-96-96-96z" p-id="93750"></path><path d="M319.758 864H224c-35.2 0-64-28.8-64-64V192c0-35.2 28.8-64 64-64h480c35.2 0 64 28.8 64 64v345.461c22.357 8.778 43.761 19.423 64 31.278V192c0-70.4-57.6-128-128-128H224c-70.4 0-128 57.6-128 128v608c0 70.4 57.6 128 128 128h166.079c-26.939-20.838-50.637-42.946-70.321-64z" p-id="93751"></path></svg>