<svg id="_6" data-name="6" xmlns="http://www.w3.org/2000/svg" width="32" height="36" viewBox="0 0 32 36">
  <metadata><?xpacket begin="﻿" id="W5M0MpCehiHzreSzNTczkc9d"?>
<x:xmpmeta xmlns:x="adobe:ns:meta/" x:xmptk="Adobe XMP Core 5.6-c142 79.160924, 2017/07/13-01:06:39        ">
   <rdf:RDF xmlns:rdf="http://www.w3.org/1999/02/22-rdf-syntax-ns#">
      <rdf:Description rdf:about=""/>
   </rdf:RDF>
</x:xmpmeta>
                                                                                                    
                                                                                                    
                                                                                                    
                                                                                                    
                                                                                                    
                                                                                                    
                                                                                                    
                                                                                                    
                                                                                                    
                                                                                                    
                                                                                                    
                                                                                                    
                                                                                                    
                                                                                                    
                                                                                                    
                                                                                                    
                                                                                                    
                                                                                                    
                                                                                                    
                                                                                                    
                           
<?xpacket end="w"?></metadata>
<defs>
    <style>
      .cls-1 {
        fill: #d81e06;
      }

      .cls-1, .cls-2 {
        fill-rule: evenodd;
      }

      .cls-2 {
        fill: #f96667;
      }
    </style>
  </defs>
  <path id="形状_3" data-name="形状 3" class="cls-1" d="M908.914,4345a2.9,2.9,0,0,0-2.914,2.87v30.26a2.9,2.9,0,0,0,2.914,2.87h26.172a2.9,2.9,0,0,0,2.914-2.87v-22.71L927.2,4345H908.914Zm20.952,26.99-12.843,3.42-2.551-7.43-1.732-9.74,12.208-1.53,6.285,4.52Zm-12.662-1.28,3.918-.94-1-1.79-3.642.77Zm-1.184-5.21,3.825-.77,1,1.71,4.28-.85-2.641-3.08-7.2,1.2,0.728,1.79h0Zm8.655-7.68-10.658,1.28,0.728,1.54,7.652-1.03,2.824,2.65,4.462-.68Z" transform="translate(-906 -4345)"/>
  <path id="形状_3_拷贝_3" data-name="形状 3 拷贝 3" class="cls-2" d="M938,4355.2H929.04a1.909,1.909,0,0,1-1.92-1.8V4345Z" transform="translate(-906 -4345)"/>
</svg>
