<svg id="_2" data-name="2" xmlns="http://www.w3.org/2000/svg" width="32" height="36" viewBox="0 0 32 36">
  <metadata><?xpacket begin="﻿" id="W5M0MpCehiHzreSzNTczkc9d"?>
<x:xmpmeta xmlns:x="adobe:ns:meta/" x:xmptk="Adobe XMP Core 5.6-c142 79.160924, 2017/07/13-01:06:39        ">
   <rdf:RDF xmlns:rdf="http://www.w3.org/1999/02/22-rdf-syntax-ns#">
      <rdf:Description rdf:about=""/>
   </rdf:RDF>
</x:xmpmeta>
                                                                                                    
                                                                                                    
                                                                                                    
                                                                                                    
                                                                                                    
                                                                                                    
                                                                                                    
                                                                                                    
                                                                                                    
                                                                                                    
                                                                                                    
                                                                                                    
                                                                                                    
                                                                                                    
                                                                                                    
                                                                                                    
                                                                                                    
                                                                                                    
                                                                                                    
                                                                                                    
                           
<?xpacket end="w"?></metadata>
<defs>
    <style>
      .cls-1 {
        fill: #45b058;
      }

      .cls-1, .cls-2 {
        fill-rule: evenodd;
      }

      .cls-2 {
        fill: #a2d8ac;
      }
    </style>
  </defs>
  <path id="形状_2_拷贝_2" data-name="形状 2 拷贝 2" class="cls-1" d="M568.914,4275a2.9,2.9,0,0,0-2.914,2.87v30.26a2.9,2.9,0,0,0,2.914,2.87h26.171a2.9,2.9,0,0,0,2.915-2.87v-21.71L587.2,4275H568.914m9.105,24.94a0.526,0.526,0,0,1-.326-0.13l-2.418-3.23-2.483,3.23a0.524,0.524,0,0,1-.326.13,0.449,0.449,0,0,1-.457-0.46,0.4,0.4,0,0,1,.065-0.26l2.548-3.29-2.352-3.16a0.344,0.344,0,0,1-.131-0.26,0.489,0.489,0,0,1,.458-0.45,0.394,0.394,0,0,1,.392.19l2.286,2.97,2.222-2.97a0.355,0.355,0,0,1,.327-0.19,0.5,0.5,0,0,1,.522.45,1.6,1.6,0,0,1-.065.26l-2.418,3.1,2.549,3.35a0.53,0.53,0,0,1,.13.26A0.508,0.508,0,0,1,578.019,4299.94Zm6.534-.07h-3.528a0.719,0.719,0,0,1-.719-0.71v-6.65a0.462,0.462,0,0,1,.523-0.45,0.441,0.441,0,0,1,.457.45v6.52h3.267a0.433,0.433,0,0,1,.458.39A0.442,0.442,0,0,1,584.553,4299.87Zm4.574,0.13a4.029,4.029,0,0,1-2.744-.97,0.3,0.3,0,0,1-.131-0.32,0.462,0.462,0,0,1,.457-0.52,0.538,0.538,0,0,1,.262.13,3.453,3.453,0,0,0,2.222.84c1.371,0,1.829-.77,1.829-1.36,0-2-4.639-.9-4.639-3.61,0-1.29,1.111-2.2,2.679-2.2a3.861,3.861,0,0,1,2.482.84,0.367,0.367,0,0,1,.2.32,0.5,0.5,0,0,1-.458.52,0.461,0.461,0,0,1-.261-0.13,3.3,3.3,0,0,0-2.026-.64c-0.98,0-1.633.45-1.633,1.22,0,1.75,4.639.71,4.639,3.62C592,4298.84,591.218,4300,589.127,4300Z" transform="translate(-566 -4275)"/>
  <path id="形状_2_拷贝" data-name="形状 2 拷贝" class="cls-2" d="M587.143,4275h0v8.21a3.348,3.348,0,0,0,3.543,3.26H598L587.143,4275" transform="translate(-566 -4275)"/>
</svg>
