<svg id="_4" data-name="4" xmlns="http://www.w3.org/2000/svg" width="32" height="36" viewBox="0 0 32 36">
  <metadata><?xpacket begin="﻿" id="W5M0MpCehiHzreSzNTczkc9d"?>
<x:xmpmeta xmlns:x="adobe:ns:meta/" x:xmptk="Adobe XMP Core 5.6-c142 79.160924, 2017/07/13-01:06:39        ">
   <rdf:RDF xmlns:rdf="http://www.w3.org/1999/02/22-rdf-syntax-ns#">
      <rdf:Description rdf:about=""/>
   </rdf:RDF>
</x:xmpmeta>
                                                                                                    
                                                                                                    
                                                                                                    
                                                                                                    
                                                                                                    
                                                                                                    
                                                                                                    
                                                                                                    
                                                                                                    
                                                                                                    
                                                                                                    
                                                                                                    
                                                                                                    
                                                                                                    
                                                                                                    
                                                                                                    
                                                                                                    
                                                                                                    
                                                                                                    
                                                                                                    
                           
<?xpacket end="w"?></metadata>
<defs>
    <style>
      .cls-1 {
        fill: #ff4c4c;
      }

      .cls-1, .cls-2 {
        fill-rule: evenodd;
      }

      .cls-2 {
        fill: #fd9796;
      }
    </style>
  </defs>
  <path id="形状_1" data-name="形状 1" class="cls-1" d="M230.571,4345h16.006L258,4356.25v20.25a4.54,4.54,0,0,1-4.572,4.5H230.571a4.539,4.539,0,0,1-4.571-4.5v-27a4.533,4.533,0,0,1,4.571-4.5m1.441,25h1.61v-2.84H234.7c1.73,0,3.112-.82,3.112-2.64,0-1.89-1.371-2.51-3.156-2.51h-2.643V4370Zm1.61-4.1v-2.63h0.914c1.11,0,1.7.32,1.7,1.25s-0.533,1.38-1.643,1.38h-0.968Zm5.643,4.1h2.3c2.372,0,3.9-1.34,3.9-4.03s-1.523-3.96-3.982-3.96h-2.208V4370Zm1.61-1.28v-5.43h0.5c1.5,0,2.437.73,2.437,2.68s-0.935,2.75-2.437,2.75h-0.5Zm6.153,1.28h1.611v-3.24H251.5v-1.34h-2.861v-2.08h3.351v-1.33h-4.962V4370Z" transform="translate(-226 -4345)"/>
  <path id="形状_1_拷贝" data-name="形状 1 拷贝" class="cls-2" d="M246.571,4345L258,4356.25h-6.857a4.533,4.533,0,0,1-4.572-4.5V4345Z" transform="translate(-226 -4345)"/>
</svg>
