<svg id="_5" data-name="5" xmlns="http://www.w3.org/2000/svg" width="32" height="36" viewBox="0 0 32 36">
  <metadata><?xpacket begin="﻿" id="W5M0MpCehiHzreSzNTczkc9d"?>
<x:xmpmeta xmlns:x="adobe:ns:meta/" x:xmptk="Adobe XMP Core 5.6-c142 79.160924, 2017/07/13-01:06:39        ">
   <rdf:RDF xmlns:rdf="http://www.w3.org/1999/02/22-rdf-syntax-ns#">
      <rdf:Description rdf:about=""/>
   </rdf:RDF>
</x:xmpmeta>
                                                                                                    
                                                                                                    
                                                                                                    
                                                                                                    
                                                                                                    
                                                                                                    
                                                                                                    
                                                                                                    
                                                                                                    
                                                                                                    
                                                                                                    
                                                                                                    
                                                                                                    
                                                                                                    
                                                                                                    
                                                                                                    
                                                                                                    
                                                                                                    
                                                                                                    
                                                                                                    
                           
<?xpacket end="w"?></metadata>
<defs>
    <style>
      .cls-1 {
        fill: #4997d9;
      }

      .cls-1, .cls-2 {
        fill-rule: evenodd;
      }

      .cls-2 {
        fill: #1973be;
      }
    </style>
  </defs>
  <path id="形状_2" data-name="形状 2" class="cls-1" d="M598,4354.9V4377a4.012,4.012,0,0,1-4,4H570a4.012,4.012,0,0,1-4-4v-28a4.012,4.012,0,0,1,4-4h18.1Zm-26.122,8.1a4.411,4.411,0,0,0,1.149-.13,3.065,3.065,0,0,0,.768-0.3l-0.357-1.03-0.24.1a1.675,1.675,0,0,1-.3.11,3.889,3.889,0,0,1-.9.11,1.747,1.747,0,0,1-.761-0.15,1.272,1.272,0,0,1-.51-0.39,1.635,1.635,0,0,1-.28-0.59,3.047,3.047,0,0,1-.086-0.75,2.457,2.457,0,0,1,.131-0.85,1.518,1.518,0,0,1,.352-0.56,1.181,1.181,0,0,1,.5-0.32,1.664,1.664,0,0,1,.581-0.1,2.911,2.911,0,0,1,1.415.34l0.371-1.05a2.525,2.525,0,0,0-.587-0.26,4.666,4.666,0,0,0-.521-0.13,4.851,4.851,0,0,0-.66-0.05,3.388,3.388,0,0,0-1.165.2,2.6,2.6,0,0,0-.927.58,2.813,2.813,0,0,0-.61.95,3.447,3.447,0,0,0-.223,1.28,3.143,3.143,0,0,0,.731,2.22,2.77,2.77,0,0,0,2.128.77h0Zm3.7-.11c0.059-.2.127-0.41,0.2-0.62s0.148-.42.221-0.63h2.23l0.22,0.63c0.073,0.21.141,0.42,0.2,0.62h1.38c-0.2-.58-0.4-1.15-0.612-1.72-0.194-.53-0.382-1.02-0.566-1.49q-0.511-1.29-1.1-2.55h-1.232q-0.289.6-.557,1.23c-0.4.92-.767,1.86-1.111,2.81-0.194.52-.4,1.1-0.612,1.72h1.34Zm2.345-2.28h-1.628c0.088-.25.175-0.49,0.262-0.71,0.14-.38.281-0.75,0.424-1.12,0.056-.15.1-0.26,0.125-0.34l0.131,0.34,0.194,0.49c0.075,0.19.152,0.4,0.236,0.63S577.832,4360.36,577.919,4360.61Zm4.767,2.35a4.846,4.846,0,0,0,1.372-.18,2.69,2.69,0,0,0,1.038-.55,2.4,2.4,0,0,0,.656-0.92,3.371,3.371,0,0,0,.231-1.3,3.476,3.476,0,0,0-.231-1.34,2.233,2.233,0,0,0-.661-0.91,2.7,2.7,0,0,0-1.029-.53,5.033,5.033,0,0,0-1.335-.16c-0.231,0-.508,0-0.83.02a6.87,6.87,0,0,0-.929.12v5.6a6.855,6.855,0,0,0,.908.12q0.463,0.03.81,0.03h0Zm0.066-1.11c-0.165,0-.33-0.01-0.5-0.02v-3.64c0.083-.01.17-0.01,0.264-0.02h0.273A1.846,1.846,0,1,1,582.752,4361.85Zm-13.013,7.95h18v-1.1h-18v1.1Zm20.754,0H596v-1.1h-5.506v1.1Zm-1.923-1.92h1.1v-11.02h-1.1v11.02Zm0,9.26h1.1v-6.51h-1.1v6.51Zm-0.83-6.51h2.753v-2.75H587.74v2.75Zm3.212-3.67h-3.673a0.457,0.457,0,0,0-.459.45v3.68a0.454,0.454,0,0,0,.459.46h3.673a0.457,0.457,0,0,0,.459-0.45v-3.68a0.456,0.456,0,0,0-.451-0.46h-0.008Z" transform="translate(-566 -4345)"/>
  <path id="形状_2_拷贝_3" data-name="形状 2 拷贝 3" class="cls-2" d="M588.1,4352.9V4345l9.9,9.9h-7.9a2.006,2.006,0,0,1-2-2" transform="translate(-566 -4345)"/>
</svg>
