<svg id="_9" data-name="9" xmlns="http://www.w3.org/2000/svg" width="32" height="36" viewBox="0 0 32 36">
  <metadata><?xpacket begin="﻿" id="W5M0MpCehiHzreSzNTczkc9d"?>
<x:xmpmeta xmlns:x="adobe:ns:meta/" x:xmptk="Adobe XMP Core 5.6-c142 79.160924, 2017/07/13-01:06:39        ">
   <rdf:RDF xmlns:rdf="http://www.w3.org/1999/02/22-rdf-syntax-ns#">
      <rdf:Description rdf:about=""/>
   </rdf:RDF>
</x:xmpmeta>
                                                                                                    
                                                                                                    
                                                                                                    
                                                                                                    
                                                                                                    
                                                                                                    
                                                                                                    
                                                                                                    
                                                                                                    
                                                                                                    
                                                                                                    
                                                                                                    
                                                                                                    
                                                                                                    
                                                                                                    
                                                                                                    
                                                                                                    
                                                                                                    
                                                                                                    
                                                                                                    
                           
<?xpacket end="w"?></metadata>
<defs>
    <style>
      .cls-1 {
        fill: #a6a6a6;
      }

      .cls-1, .cls-2 {
        fill-rule: evenodd;
      }

      .cls-2 {
        fill: #cfcfcf;
      }
    </style>
  </defs>
  <path id="形状_1" data-name="形状 1" class="cls-1" d="M2725.43,4121h-22.86a4.535,4.535,0,0,1-4.57-4.5v-27a4.535,4.535,0,0,1,4.57-4.5h16.01l11.42,11.25v20.25A4.535,4.535,0,0,1,2725.43,4121Zm-17.66-18.99h-4.76v8h1.55v-3.24h2.74v-1.34h-2.74v-2.09h3.21v-1.33Zm3.42,0h-1.55v8h1.55v-8Zm7.1,6.66h-3.13v-6.66h-1.55v8h4.68v-1.34Zm6.72,0h-3.31v-2.14h2.72v-1.34h-2.72v-1.85h3.2v-1.33h-4.74v8h4.85v-1.34Z" transform="translate(-2698 -4085)"/>
  <path id="形状_1_拷贝" data-name="形状 1 拷贝" class="cls-2" d="M2718.57,4085l11.43,11.25h-6.86a4.535,4.535,0,0,1-4.57-4.5V4085Z" transform="translate(-2698 -4085)"/>
</svg>
