<svg id="组_17" data-name="组 17" xmlns="http://www.w3.org/2000/svg" width="200" height="200" viewBox="0 0 200 200">
  <metadata><?xpacket begin="﻿" id="W5M0MpCehiHzreSzNTczkc9d"?>
<x:xmpmeta xmlns:x="adobe:ns:meta/" x:xmptk="Adobe XMP Core 5.6-c142 79.160924, 2017/07/13-01:06:39        ">
   <rdf:RDF xmlns:rdf="http://www.w3.org/1999/02/22-rdf-syntax-ns#">
      <rdf:Description rdf:about=""/>
   </rdf:RDF>
</x:xmpmeta>
                                                                                                    
                                                                                                    
                                                                                                    
                                                                                                    
                                                                                                    
                                                                                                    
                                                                                                    
                                                                                                    
                                                                                                    
                                                                                                    
                                                                                                    
                                                                                                    
                                                                                                    
                                                                                                    
                                                                                                    
                                                                                                    
                                                                                                    
                                                                                                    
                                                                                                    
                                                                                                    
                           
<?xpacket end="w"?></metadata>
<defs>
    <style>
      .cls-1 {
        fill: #d7d7d7;
        fill-rule: evenodd;
      }
    </style>
  </defs>
  <g id="组_16" data-name="组 16">
    <path id="形状_1" data-name="形状 1" class="cls-1" d="M172.275,154H27.755A3.989,3.989,0,0,1,24,149.845v-0.071a3.99,3.99,0,0,1,3.756-4.157H38.834V40.36c0-6.475,4.5-12.444,10.469-13.942L87.42,14.481c4.475-1.012,11.082-.506,14.564,1.983a11.535,11.535,0,0,1,4.433,8.289V145.617h6.289V51.407l39.8,12.345c5.08,1.5,9.127,6.981,9.127,12.951v68.914h8.5c0.072,0,.138.019,0.208,0.024h1.928a3.927,3.927,0,0,1,3.731,4.133v0.071A3.98,3.98,0,0,1,172.275,154ZM83.665,50.33H63.74a4.7,4.7,0,0,0-4.982,4.977,4.7,4.7,0,0,0,4.982,4.978H83.665a4.707,4.707,0,0,0,4.981-4.978A4.7,4.7,0,0,0,83.665,50.33Zm0,29.254H63.74a4.977,4.977,0,1,0,0,9.955H83.665A4.977,4.977,0,1,0,83.665,79.584Zm0.021,31.484H63.719a4.971,4.971,0,0,0-4.961,4.957,4.98,4.98,0,0,0,4.961,4.957H83.686a4.972,4.972,0,0,0,4.96-4.957A4.979,4.979,0,0,0,83.686,111.068ZM145.111,79.7H130.728a4.978,4.978,0,1,0,0,9.955h14.383A4.978,4.978,0,1,0,145.111,79.7Zm0,31.343H130.728a4.979,4.979,0,1,0,0,9.955h14.383A4.979,4.979,0,1,0,145.111,111.047Z" transform="translate(0 0.063)"/>
  </g>
  <path id="暂无" class="cls-1" d="M114.469,182.546c0,0.84.24,1.032,1.464,1.032h4.176c1.176,0,1.368-.552,1.512-3.816a5.416,5.416,0,0,0,1.7.744c-0.24,3.817-.792,4.8-3.1,4.8h-4.464c-2.473,0-3.121-.624-3.121-2.761v-8.184h-0.5c-0.984,4.632-3.384,9.048-9.528,11.521a5.862,5.862,0,0,0-1.2-1.464,13.479,13.479,0,0,0,8.953-10.057h-8.641v-1.753h8.953a45.1,45.1,0,0,0,.432-5.3h-7.9v-1.728h18.529v1.728H112.86a45.1,45.1,0,0,1-.432,5.3h10.681v1.753h-8.64v8.184Zm-18.144-6.1H94.669v-5.665H91.453a10.471,10.471,0,0,1-1.9,5.689,8.684,8.684,0,0,0-1.344-.888c1.512-1.92,1.7-4.489,1.7-6.457v-3.576a37.543,37.543,0,0,0,7.561-1.248l0.96,1.344a35.833,35.833,0,0,1-6.913,1.128v2.544h7.609v1.464H96.325v5.665Zm-11.257-3.672c1.2-.121,2.4-0.265,3.6-0.385l0.024,1.369-3.624.408V176.5h-1.68v-2.136l-5.472.576-0.168-1.488c1.512-.12,3.48-0.312,5.641-0.5v-1.993h-2.88a3.7,3.7,0,0,0-1.92.336,12.27,12.27,0,0,0-.576-1.632,2.543,2.543,0,0,0,1.224-1.032,15.27,15.27,0,0,0,1.152-1.656H77.723v-1.392h3.5c0.288-.552.576-1.1,0.816-1.68l1.8,0.5c-0.216.408-.456,0.768-0.7,1.176h5.616v1.392h-6.5a25.255,25.255,0,0,1-1.968,2.544h3.1v-1.56h1.68v1.56h3.744v1.44H85.068v1.825Zm11.137,13.033H94.453v-0.792H82.332v0.84h-1.7v-8.905H96.205v8.857Zm-1.752-7.441H82.332v1.944H94.453V178.37Zm0,3.24H82.332V183.6H94.453V181.61Z" transform="translate(0 0.063)"/>
</svg>
