<svg width="16" height="16" viewBox="0 0 16 16" fill="none" xmlns="http://www.w3.org/2000/svg">
<g id="&#230;&#156;&#170;&#233;&#128;&#137;&#228;&#184;&#173;">
<path id="Vector" d="M7.99999 1C9.38445 1 10.7378 1.41055 11.889 2.17972C13.0401 2.94889 13.9373 4.04215 14.4671 5.32123C14.997 6.60031 15.1356 8.00776 14.8655 9.36563C14.5954 10.7235 13.9287 11.9708 12.9498 12.9497C11.9708 13.9287 10.7235 14.5954 9.36565 14.8655C8.00778 15.1356 6.6003 14.997 5.32121 14.4672C4.04213 13.9373 2.94884 13.0401 2.17967 11.889C1.4105 10.7378 0.999986 9.38447 0.999986 8C0.999986 6.14348 1.73746 4.36302 3.05022 3.05026C4.36297 1.73751 6.14347 1 7.99999 1ZM7.99999 0C6.41774 0 4.871 0.469185 3.55541 1.34824C2.23981 2.22729 1.21443 3.47673 0.608933 4.93854C0.00343233 6.40035 -0.154949 8.00888 0.153733 9.56073C0.462415 11.1126 1.22431 12.538 2.34313 13.6569C3.46195 14.7757 4.88741 15.5376 6.43926 15.8463C7.9911 16.155 9.59964 15.9965 11.0614 15.391C12.5233 14.7855 13.7727 13.7601 14.6517 12.4445C15.5308 11.129 16 9.58225 16 8C16 5.87827 15.1571 3.84343 13.6568 2.34314C12.1566 0.842849 10.1217 0 7.99999 0Z" fill="#CCCCCC"/>
</g>
</svg>
