<svg width="16" height="16" viewBox="0 0 16 16" fill="none" xmlns="http://www.w3.org/2000/svg">
<g id="&#230;&#156;&#170;&#233;&#128;&#137;&#228;&#184;&#173;">
<path id="Vector" d="M8 4C8.79113 4 9.56449 4.23461 10.2223 4.67413C10.8801 5.11366 11.3928 5.73836 11.6955 6.46927C11.9983 7.20017 12.0775 8.00444 11.9231 8.78036C11.7688 9.55629 11.3878 10.269 10.8284 10.8284C10.269 11.3878 9.55629 11.7688 8.78036 11.9231C8.00444 12.0775 7.20017 11.9983 6.46927 11.6955C5.73836 11.3928 5.11366 10.8801 4.67413 10.2223C4.23461 9.56449 4 8.79113 4 8C4 6.93913 4.42142 5.92172 5.17157 5.17157C5.92172 4.42142 6.93913 4 8 4ZM8 0C6.41775 0 4.87104 0.469185 3.55545 1.34824C2.23986 2.22729 1.21448 3.47673 0.608979 4.93854C0.00347757 6.40035 -0.154964 8.00888 0.153717 9.56073C0.462399 11.1126 1.22432 12.538 2.34314 13.6569C3.46196 14.7757 4.88742 15.5376 6.43927 15.8463C7.99112 16.155 9.59965 15.9965 11.0615 15.391C12.5233 14.7855 13.7727 13.7601 14.6518 12.4445C15.5308 11.129 16 9.58225 16 8C16 5.87827 15.1572 3.84343 13.6569 2.34314C12.1566 0.842849 10.1217 0 8 0Z" fill="#101820"/>
</g>
</svg>
