<svg xmlns="http://www.w3.org/2000/svg" width="66.656" height="65.75" viewBox="0 0 66.656 65.75">
  <metadata><?xpacket begin="﻿" id="W5M0MpCehiHzreSzNTczkc9d"?>
<x:xmpmeta xmlns:x="adobe:ns:meta/" x:xmptk="Adobe XMP Core 5.6-c142 79.160924, 2017/07/13-01:06:39        ">
   <rdf:RDF xmlns:rdf="http://www.w3.org/1999/02/22-rdf-syntax-ns#">
      <rdf:Description rdf:about=""/>
   </rdf:RDF>
</x:xmpmeta>
                                                                                                    
                                                                                                    
                                                                                                    
                                                                                                    
                                                                                                    
                                                                                                    
                                                                                                    
                                                                                                    
                                                                                                    
                                                                                                    
                                                                                                    
                                                                                                    
                                                                                                    
                                                                                                    
                                                                                                    
                                                                                                    
                                                                                                    
                                                                                                    
                                                                                                    
                                                                                                    
                           
<?xpacket end="w"?></metadata>
<defs>
    <style>
      .cls-1 {
        fill: #d7d7d7;
        fill-rule: evenodd;
      }
    </style>
  </defs>
  <path id="椭圆_4" data-name="椭圆 4" class="cls-1" d="M62.75,65.75H4.094a4,4,0,0,1-4-4V55.469a21.987,21.987,0,0,1,14.418-20.63,24.068,24.068,0,0,0,14.165,7.548L29.977,45l-2.3,11.538,4.6,4.615,4.6-4.615L34.575,45l1.3-2.615A24.078,24.078,0,0,0,50.54,34.265a21.99,21.99,0,0,1,16.21,21.2V61.75A4,4,0,0,1,62.75,65.75ZM55.064,47.667H45.869v3.454h9.195V47.667ZM50.094,24.25a1.8,1.8,0,0,1-.3-0.049,18.415,18.415,0,0,1-35.348.047c-1.574-.01-2.848-2.075-2.848-4.623,0-2.294,1.035-4.184,2.389-4.548a18.436,18.436,0,0,1,36.245-.055c1.524,0.115,2.741,2.123,2.741,4.6C52.969,22.179,51.682,24.25,50.094,24.25Z" transform="translate(-0.094)"/>
</svg>
